<?xml version="1.0" encoding="utf-8"?>
<!-- Generator: Adobe Illustrator 28.0.0, SVG Export Plug-In . SVG Version: 6.00 Build 0)  -->
<svg version="1.1" id="Layer_1" xmlns="http://www.w3.org/2000/svg" xmlns:xlink="http://www.w3.org/1999/xlink" x="0px" y="0px"
	 viewBox="0 0 341.5 147.4" style="enable-background:new 0 0 341.5 147.4;" xml:space="preserve">
<style type="text/css">
	.st0{fill:#8C15E9;}
	.st1{fill:#F8F3FF;}
</style>
<g>
	<path class="st0" d="M24,11.2h52.9c5.3,0,9.7,4.3,9.7,9.7v105.7c0,5.3-4.3,9.7-9.7,9.7H24c-5.3,0-9.7-4.3-9.7-9.7V20.8
		C14.3,15.5,18.7,11.2,24,11.2z"/>
	<path class="st1" d="M24.9,25.4h51c2.4,0,4.4,2,4.4,4.4v78.3c0,2.4-2,4.4-4.4,4.4h-51c-2.4,0-4.4-2-4.4-4.4V29.8
		C20.5,27.4,22.5,25.4,24.9,25.4z"/>
	<path class="st1" d="M40.4,126c0.9-4.2-2.7-7.8-6.9-6.9c-2.1,0.5-3.8,2.2-4.3,4.3c-0.9,4.2,2.7,7.8,6.9,6.9
		C38.3,129.8,40,128.1,40.4,126z"/>
	<path class="st1" d="M29.4,17.3h16.1c0.8,0,1.4,0.6,1.4,1.4v0.8c0,0.8-0.6,1.4-1.4,1.4H29.4c-0.8,0-1.4-0.6-1.4-1.4v-0.8
		C28,18,28.6,17.3,29.4,17.3z"/>
	<path class="st1" d="M26.1,19.1c0-0.9-0.7-1.6-1.6-1.6s-1.6,0.7-1.6,1.6s0.7,1.6,1.6,1.6S26.1,20,26.1,19.1z"/>
</g>
<g>
	<path class="st0" d="M58.7,54.6c1.2,0,2.9,0.9,5,2.7c2.1,1.8,3.2,3.3,3.2,4.6c0,3.9-1.6,11.3-4.8,22.1s-6,16.2-8.4,16.2
		c-1.2,0-2.2-0.6-3.1-1.9c-0.9-1.3-1.3-2.5-1.3-3.7s0.2-2.5,0.5-3.9s1.5-5.4,3.4-12.2c-3.6,1.2-7.4,1.8-11.2,1.8s-6.9-1-9.3-3
		s-3.6-4.5-3.6-7.6s1.4-7.1,4.1-12.2s5.7-9.4,8.8-13.2c3.2-3.8,5.4-5.7,6.6-5.7s2.6,0.7,4,2.2s2.2,2.7,2.2,3.8c0,1-2.5,4.9-7.4,11.6
		C42.5,63.1,40,67.3,40,69c0,0.8,0.1,1.3,0.4,1.5s1,0.4,2.2,0.4c1.1,0,2.5-0.3,4.1-0.8s3.3-1.2,5.1-2s3.1-1.3,3.8-1.5
		c0.5-3,0.7-6.3,0.7-9.7C56.4,55.4,57.2,54.6,58.7,54.6z"/>
	<path class="st0" d="M123.3,49.4c2,0,4.1,1.7,6.2,5c2.1,3.3,3.2,6.7,3.2,10c0,3.3-1.5,7-4.4,11c-3,4-6.7,7.4-11.3,10.3
		c-4.6,2.9-8.9,4.4-13,4.4c-0.7,0-1.2,0-1.5-0.1c-2.4,10.2-4.1,16.7-5.4,19.2c-0.6,1.2-1.1,1.8-1.6,1.8c-1,0-2.1-0.8-3.2-2.4
		s-1.7-3-1.7-4.2s0.8-5,2.4-11.5c4.7-19.2,7.1-33.2,7.1-42c0-1.6,0.7-2.4,2.2-2.4c1.2,0,2.8,0.8,4.6,2.3c1.9,1.5,2.9,3.4,3.1,5.7
		C114.5,51.7,119,49.4,123.3,49.4L123.3,49.4z M117.1,74.9c4.1-4,6.1-7.6,6.1-10.9s-0.9-5-2.6-5c-1.4,0-3.5,1-6.2,3.1
		c-1.5,1.1-3,2.9-4.6,5.4s-2.9,5.4-4,8.7l-1.4,5.4C108.8,81,113,78.8,117.1,74.9z"/>
	<path class="st0" d="M148.2,27c1.3,0,2.8,1.1,4.5,3.2s2.5,4.1,2.5,5.9c0,5-3.1,17.7-9.4,38.2c4-7.8,7.9-13.9,11.7-18.3
		s7-6.6,9.6-6.6c1.6,0,3.4,1.4,5.4,4.2s3.1,5.3,3.1,7.7s-0.5,5.8-1.5,10.4s-2.5,8.8-4.5,12.7c-2,3.9-4,5.8-6,5.8
		c-1.6,0-2.4-1.1-2.4-3.4s0.6-5.2,1.7-9c1.1-3.8,1.9-6.5,2.2-8c0.4-1.5,0.6-3,0.6-4.6s-0.3-2.3-1-2.3c-1.8,0-3.9,1.5-6.2,4.4
		c-2.3,2.9-4.5,6.1-6.6,9.6s-3.4,5.7-4,6.6s-1.3,2-2.2,3.2c-1.6,2.2-3,3.4-4.1,3.4s-2.4-0.9-4-2.6c-1.5-1.8-2.3-3.1-2.3-4
		s0.3-2.6,0.8-4.9s1.2-5.5,2.2-9.5s2.5-11,4.5-20.9s3-15.9,3-18S146.6,27,148.2,27L148.2,27z"/>
	<path class="st0" d="M207.9,53.6c2.6,2.8,3.9,6.2,3.9,10.2s-1,8-2.9,12.2s-4.6,7.6-8,10.3c-3.4,2.7-7,4-10.9,4
		c-2.9,0-5.3-1.3-7.4-3.9c-2-2.6-3-5.9-3-9.8s1-8.1,2.9-12.5c1.9-4.3,4.3-7.9,7.3-10.6c2.9-2.7,5.8-4.1,8.6-4.1
		C202.1,49.3,205.3,50.7,207.9,53.6L207.9,53.6z M192.7,64.5c-2.4,4.4-3.5,8.3-3.5,11.8c0,3.4,0.5,5.6,1.5,6.6
		c3.1-1.1,5.9-3.7,8.2-7.8c2.3-4.1,3.5-7.9,3.5-11.5s-0.7-6.1-2.1-7.5C197.6,57.3,195,60.1,192.7,64.5L192.7,64.5z"/>
	<path class="st0" d="M245,49.4c2.5,0,4.8,1.2,6.8,3.6c2,2.4,3,5,3,7.7c0,4.2-0.8,8.8-2.2,13.8c-3.2,10.5-6.5,15.7-9.8,15.7
		c-1.6,0-2.4-1.1-2.4-3.4c0-1.3,0.8-4.9,2.5-10.7c1.7-5.8,2.5-9.8,2.5-12.2c0-2.3-0.4-3.5-1.1-3.5s-1.5,0.3-2.1,1
		c-0.7,0.7-1.2,1.3-1.6,1.8c-0.4,0.5-0.9,1.2-1.5,2c-0.6,0.9-1.1,1.6-1.5,2.2s-0.9,1.5-1.6,2.6c-0.7,1.1-1.2,2-1.6,2.6
		c-0.4,0.6-0.9,1.6-1.6,2.8c-0.7,1.3-1.5,2.6-2.3,4s-1.7,2.8-2.5,4.1c-0.9,1.4-2,2.8-3.3,4.2c-1.4,1.5-2.5,2.2-3.5,2.2
		s-2.2-0.8-3.8-2.5s-2.3-2.9-2.3-3.6s0.1-1.5,0.4-2.4c0.3-0.9,0.7-2.1,1.3-3.5s1-2.7,1.3-3.8c1.1-3.7,1.9-8.6,2.3-14.8
		c0.4-6.2,0.9-9.6,1.4-10.3c0.2-0.3,0.5-0.4,0.7-0.4c1.8,0,3.5,0.8,5.2,2.3c1.7,1.6,2.5,3,2.5,4.3c0,3.4-1,8.7-3,15.8
		C235.7,56.7,241.6,49.4,245,49.4L245,49.4z"/>
	<path class="st0" d="M288.9,70.9c-3.4,2-7,3-10.7,3s-7-0.3-9.7-1c-0.5,1.9-0.8,3.5-0.8,5s0.3,2.6,1,3.3c0.7,0.8,2,1.1,4,1.1
		c3.7,0,7-0.4,9.8-1.2c2.8-0.8,4.3-1.2,4.5-1.2c2,0,3,0.7,3,2c0,1.9-1.7,3.8-5.1,5.6c-3.4,1.8-7.2,2.7-11.4,2.7
		c-4.2,0-7.7-1.4-10.4-4.1c-2.7-2.7-4-6-4-9.8s1.1-7.9,3.3-12c2.2-4.2,5-7.7,8.3-10.6c3.4-2.9,6.7-4.3,10-4.3s6.4,1.6,9.2,4.9
		c2.8,3.3,4.2,6.5,4.2,9.7C294,66.6,292.3,68.9,288.9,70.9L288.9,70.9z M283.9,59.9c-1.2-1.1-2.4-1.7-3.5-1.7s-2.6,0.8-4.4,2.4
		s-3.3,3.7-4.7,6.1c1.2,0.2,2.4,0.2,3.4,0.2c7.3,0,11-1.4,11-4.2C285.6,62.1,285,61.1,283.9,59.9L283.9,59.9z"/>
	<path class="st0" d="M329.3,59c0,1.2-0.5,1.8-1.6,1.8c-0.6,0-1.6-0.3-2.8-1c-1.2-0.6-2.5-1-3.7-1s-3.1,0.5-5.6,1.6
		s-3.8,2.3-3.8,3.8c0,0.6,0.7,1.5,2.2,2.5s3.1,2.1,4.8,3.2c1.7,1.1,3.3,2.6,4.8,4.4c1.5,1.9,2.2,3.9,2.2,6.1s-1.6,4.4-4.7,6.5
		c-3.1,2.2-6.8,3.2-11,3.2s-7.8-1-10.9-2.9c-3-1.9-4.6-3.9-4.6-5.8s0.8-2.9,2.3-2.9c0.6,0,1.4,0.3,2.3,0.9c2.7,1.7,6,2.6,9.9,2.6
		c1.8,0,3.4-0.2,4.7-0.6c1.3-0.4,2-1.1,2-2s-0.8-2-2.3-3.4c-1.5-1.3-3.2-2.6-5-3.7s-3.5-2.5-5-4.1s-2.3-3.3-2.3-5
		c0-1.7,1.3-3.7,3.8-6s5.3-4.2,8.4-5.6c3.1-1.5,5.5-2.2,7.4-2.2s3.8,1.1,5.6,3.4C328.3,55.2,329.3,57.2,329.3,59L329.3,59z"/>
</g>
</svg>
